<svg width="640" height="360" viewBox="0 0 640 360" fill="none" xmlns="http://www.w3.org/2000/svg">
  <rect width="640" height="360" rx="20" fill="#F8FAFC"/>
  <rect x="28" y="28" width="584" height="304" rx="14" fill="#FFFFFF" stroke="#E5E7EB"/>

  <text x="52" y="72" fill="#111827" font-family="Arial, sans-serif" font-size="22" font-weight="700">Payment Gateway Preview</text>
  <text x="52" y="102" fill="#6B7280" font-family="Arial, sans-serif" font-size="14">Placeholder image wired from frontend button</text>

  <rect x="52" y="124" width="232" height="180" rx="12" fill="#F3F4F6" stroke="#D1D5DB"/>

  <rect x="70" y="142" width="26" height="26" fill="#111827"/>
  <rect x="104" y="142" width="12" height="12" fill="#111827"/>
  <rect x="122" y="142" width="12" height="12" fill="#111827"/>
  <rect x="140" y="142" width="20" height="20" fill="#111827"/>
  <rect x="168" y="142" width="10" height="10" fill="#111827"/>
  <rect x="186" y="142" width="12" height="12" fill="#111827"/>

  <rect x="70" y="176" width="10" height="10" fill="#111827"/>
  <rect x="88" y="176" width="18" height="18" fill="#111827"/>
  <rect x="114" y="176" width="12" height="12" fill="#111827"/>
  <rect x="134" y="176" width="10" height="10" fill="#111827"/>
  <rect x="152" y="176" width="16" height="16" fill="#111827"/>
  <rect x="176" y="176" width="18" height="18" fill="#111827"/>

  <rect x="70" y="204" width="16" height="16" fill="#111827"/>
  <rect x="94" y="204" width="10" height="10" fill="#111827"/>
  <rect x="112" y="204" width="18" height="18" fill="#111827"/>
  <rect x="138" y="204" width="10" height="10" fill="#111827"/>
  <rect x="156" y="204" width="14" height="14" fill="#111827"/>
  <rect x="178" y="204" width="12" height="12" fill="#111827"/>

  <rect x="70" y="230" width="12" height="12" fill="#111827"/>
  <rect x="90" y="230" width="20" height="20" fill="#111827"/>
  <rect x="118" y="230" width="12" height="12" fill="#111827"/>
  <rect x="136" y="230" width="18" height="18" fill="#111827"/>
  <rect x="162" y="230" width="10" height="10" fill="#111827"/>
  <rect x="180" y="230" width="12" height="12" fill="#111827"/>

  <rect x="304" y="124" width="280" height="40" rx="8" fill="#F9FAFB" stroke="#E5E7EB"/>
  <text x="320" y="149" fill="#374151" font-family="Arial, sans-serif" font-size="14">Order: Job Completion Payment</text>

  <rect x="304" y="174" width="280" height="40" rx="8" fill="#F9FAFB" stroke="#E5E7EB"/>
  <text x="320" y="199" fill="#374151" font-family="Arial, sans-serif" font-size="14">Amount: RM --</text>

  <rect x="304" y="224" width="280" height="40" rx="8" fill="#F9FAFB" stroke="#E5E7EB"/>
  <text x="320" y="249" fill="#374151" font-family="Arial, sans-serif" font-size="14">Status: Awaiting payment</text>
</svg>
